<svg width="71" height="19" viewBox="0 0 71 19" fill="none" xmlns="http://www.w3.org/2000/svg">
<g filter="url(#filter0_d_1_20)">
<path d="M8.88242 0.758638H10.3664L14.2304 10.6986H12.5784L11.5284 7.99664H7.69242L6.65642 10.6986H4.99042L8.88242 0.758638ZM11.2204 6.83464L9.62442 2.48064L7.97242 6.83464H11.2204ZM15.4597 10.6986V0.758638H19.7857C20.2337 0.758638 20.6444 0.851972 21.0177 1.03864C21.391 1.22531 21.713 1.47264 21.9837 1.78064C22.2637 2.08864 22.4784 2.43397 22.6277 2.81664C22.7864 3.19931 22.8657 3.59131 22.8657 3.99264C22.8657 4.43131 22.7864 4.85131 22.6277 5.25264C22.469 5.65397 22.2404 5.99931 21.9417 6.28864C21.6524 6.57797 21.3117 6.78797 20.9197 6.91864L23.2577 10.6986H21.4937L19.3377 7.24064H17.0277V10.6986H15.4597ZM17.0277 5.85464H19.7717C20.061 5.85464 20.3177 5.77064 20.5417 5.60264C20.7657 5.43464 20.943 5.21064 21.0737 4.93064C21.2044 4.64131 21.2697 4.32864 21.2697 3.99264C21.2697 3.64731 21.195 3.33931 21.0457 3.06864C20.8964 2.78864 20.7004 2.56464 20.4577 2.39664C20.2244 2.22864 19.9677 2.14464 19.6877 2.14464H17.0277V5.85464ZM31.9138 2.14464H28.6098V10.6986H27.0278V2.14464H23.7098V0.758638H31.9138V2.14464ZM33.2468 10.6986V0.758638H34.8148V10.6986H33.2468ZM42.9412 3.09664C42.8479 2.99397 42.7126 2.88664 42.5353 2.77464C42.3579 2.6533 42.1479 2.5413 41.9053 2.43864C41.6626 2.33597 41.4012 2.25197 41.1212 2.18664C40.8412 2.12131 40.5519 2.08864 40.2533 2.08864C39.5999 2.08864 39.1146 2.20997 38.7973 2.45264C38.4799 2.69531 38.3212 3.03131 38.3212 3.46064C38.3212 3.77797 38.4099 4.02997 38.5872 4.21664C38.7646 4.39397 39.0352 4.54331 39.3992 4.66464C39.7633 4.78597 40.2206 4.91664 40.7713 5.05664C41.4433 5.21531 42.0266 5.40664 42.5213 5.63064C43.0159 5.84531 43.3939 6.13464 43.6552 6.49864C43.9166 6.86264 44.0473 7.34331 44.0473 7.94064C44.0473 8.44464 43.9539 8.87864 43.7673 9.24264C43.5806 9.60664 43.3193 9.90531 42.9833 10.1386C42.6473 10.3626 42.2599 10.5306 41.8213 10.6426C41.3826 10.7453 40.9113 10.7966 40.4072 10.7966C39.9126 10.7966 39.4179 10.7453 38.9233 10.6426C38.4379 10.54 37.9712 10.3906 37.5232 10.1946C37.0846 9.98931 36.6786 9.74197 36.3052 9.45264L37.0192 8.10864C37.1406 8.22997 37.3132 8.36531 37.5372 8.51464C37.7706 8.65464 38.0366 8.78997 38.3352 8.92064C38.6432 9.05131 38.9746 9.16331 39.3293 9.25664C39.6933 9.34064 40.0619 9.38264 40.4352 9.38264C41.0606 9.38264 41.5366 9.27531 41.8632 9.06064C42.1993 8.83664 42.3673 8.51931 42.3673 8.10864C42.3673 7.77264 42.2599 7.50664 42.0453 7.31064C41.8306 7.10531 41.5179 6.93264 41.1073 6.79264C40.6966 6.65264 40.2066 6.51264 39.6372 6.37264C38.9839 6.19531 38.4379 6.00397 37.9992 5.79864C37.5606 5.58397 37.2292 5.31331 37.0052 4.98664C36.7906 4.65064 36.6832 4.22597 36.6832 3.71264C36.6832 3.05931 36.8419 2.50864 37.1592 2.06064C37.4766 1.60331 37.9059 1.26264 38.4472 1.03864C38.9979 0.805305 39.6139 0.688638 40.2953 0.688638C40.7433 0.688638 41.1679 0.739972 41.5692 0.842638C41.9706 0.935972 42.3439 1.06664 42.6893 1.23464C43.0439 1.40264 43.3659 1.59397 43.6552 1.80864L42.9412 3.09664ZM52.9138 2.14464H49.6098V10.6986H48.0278V2.14464H44.7098V0.758638H52.9138V2.14464ZM54.2468 10.6986V0.758638H55.8148V10.6986H54.2468ZM57.4312 5.65864C57.4312 5.05197 57.5386 4.45931 57.7532 3.88064C57.9679 3.29264 58.2806 2.76064 58.6912 2.28464C59.1112 1.79931 59.6199 1.41664 60.2173 1.13664C60.8146 0.847305 61.4912 0.702638 62.2472 0.702638C63.1433 0.702638 63.9179 0.907972 64.5713 1.31864C65.2246 1.71997 65.7099 2.23797 66.0273 2.87264L64.7953 3.69864C64.6086 3.29731 64.3706 2.97997 64.0813 2.74664C63.8013 2.5133 63.4933 2.34997 63.1573 2.25664C62.8306 2.16331 62.5086 2.11664 62.1913 2.11664C61.6686 2.11664 61.2112 2.22397 60.8192 2.43864C60.4273 2.64397 60.0959 2.91931 59.8253 3.26464C59.5639 3.60997 59.3632 3.99731 59.2232 4.42664C59.0926 4.85597 59.0272 5.28531 59.0272 5.71464C59.0272 6.19064 59.1066 6.65264 59.2652 7.10064C59.4239 7.53931 59.6433 7.93131 59.9233 8.27664C60.2126 8.61264 60.5533 8.87864 60.9453 9.07464C61.3372 9.27064 61.7666 9.36864 62.2333 9.36864C62.5506 9.36864 62.8819 9.31264 63.2273 9.20064C63.5726 9.08864 63.8899 8.91597 64.1793 8.68264C64.4779 8.43997 64.7113 8.12264 64.8793 7.73064L66.1813 8.47264C65.9759 8.96731 65.6539 9.38731 65.2153 9.73264C64.7859 10.078 64.3006 10.3393 63.7593 10.5166C63.2272 10.694 62.6999 10.7826 62.1773 10.7826C61.4773 10.7826 60.8379 10.638 60.2593 10.3486C59.6806 10.05 59.1813 9.65797 58.7612 9.17264C58.3412 8.67797 58.0146 8.12731 57.7812 7.52064C57.5479 6.90464 57.4312 6.28397 57.4312 5.65864Z" fill="#C0C1C9"/>
<path d="M8.88242 0.758638V0.258638H8.54123L8.41684 0.57634L8.88242 0.758638ZM10.3664 0.758638L10.8324 0.577479L10.7085 0.258638H10.3664V0.758638ZM14.2304 10.6986V11.1986H14.9612L14.6964 10.5175L14.2304 10.6986ZM12.5784 10.6986L12.1124 10.8797L12.2363 11.1986H12.5784V10.6986ZM11.5284 7.99664L11.9945 7.81553L11.8705 7.49664H11.5284V7.99664ZM7.69242 7.99664V7.49664H7.34864L7.22556 7.81764L7.69242 7.99664ZM6.65642 10.6986V11.1986H7.00021L7.12328 10.8776L6.65642 10.6986ZM4.99042 10.6986L4.52484 10.5163L4.25769 11.1986H4.99042V10.6986ZM11.2204 6.83464V7.33464H11.9362L11.6899 6.66256L11.2204 6.83464ZM9.62442 2.48064L10.0939 2.30856L9.6325 1.04989L9.15694 2.30327L9.62442 2.48064ZM7.97242 6.83464L7.50494 6.65727L7.24793 7.33464H7.97242V6.83464ZM8.88242 1.25864H10.3664V0.258638H8.88242V1.25864ZM9.9004 0.939798L13.7644 10.8798L14.6964 10.5175L10.8324 0.577479L9.9004 0.939798ZM14.2304 10.1986H12.5784V11.1986H14.2304V10.1986ZM13.0445 10.5175L11.9945 7.81553L11.0624 8.17775L12.1124 10.8797L13.0445 10.5175ZM11.5284 7.49664H7.69242V8.49664H11.5284V7.49664ZM7.22556 7.81764L6.18956 10.5196L7.12328 10.8776L8.15928 8.17564L7.22556 7.81764ZM6.65642 10.1986H4.99042V11.1986H6.65642V10.1986ZM5.456 10.8809L9.348 0.940937L8.41684 0.57634L4.52484 10.5163L5.456 10.8809ZM11.6899 6.66256L10.0939 2.30856L9.15497 2.65272L10.751 7.00672L11.6899 6.66256ZM9.15694 2.30327L7.50494 6.65727L8.4399 7.01201L10.0919 2.65801L9.15694 2.30327ZM7.97242 7.33464H11.2204V6.33464H7.97242V7.33464ZM15.4597 10.6986H14.9597V11.1986H15.4597V10.6986ZM15.4597 0.758638V0.258638H14.9597V0.758638H15.4597ZM21.0177 1.03864L21.2413 0.591425V0.591424L21.0177 1.03864ZM21.9837 1.78064L21.6081 2.11074L21.6137 2.11698L21.9837 1.78064ZM22.6277 2.81664L22.1618 2.99845L22.1658 3.00815L22.6277 2.81664ZM22.6277 5.25264L22.1627 5.06881V5.06881L22.6277 5.25264ZM21.9417 6.28864L21.5937 5.92947L21.5881 5.93509L21.9417 6.28864ZM20.9197 6.91864L20.7616 6.4443L20.162 6.64415L20.4945 7.18165L20.9197 6.91864ZM23.2577 10.6986V11.1986H24.1549L23.6829 10.4356L23.2577 10.6986ZM21.4937 10.6986L21.0694 10.9632L21.2162 11.1986H21.4937V10.6986ZM19.3377 7.24064L19.762 6.9761L19.6152 6.74064H19.3377V7.24064ZM17.0277 7.24064V6.74064H16.5277V7.24064H17.0277ZM17.0277 10.6986V11.1986H17.5277V10.6986H17.0277ZM17.0277 5.85464H16.5277V6.35464H17.0277V5.85464ZM21.0737 4.93064L21.5268 5.1421L21.5294 5.13643L21.0737 4.93064ZM21.0457 3.06864L20.6045 3.30396L20.6079 3.31018L21.0457 3.06864ZM20.4577 2.39664L20.1655 2.80247L20.1731 2.80773L20.4577 2.39664ZM17.0277 2.14464V1.64464H16.5277V2.14464H17.0277ZM15.9597 10.6986V0.758638H14.9597V10.6986H15.9597ZM15.4597 1.25864H19.7857V0.258638H15.4597V1.25864ZM19.7857 1.25864C20.1619 1.25864 20.4952 1.33641 20.7941 1.48585L21.2413 0.591424C20.7935 0.367532 20.3055 0.258638 19.7857 0.258638V1.25864ZM20.7941 1.48585C21.1107 1.64418 21.3808 1.85208 21.6081 2.1107L22.3593 1.45058C22.0452 1.0932 21.6713 0.806434 21.2413 0.591425L20.7941 1.48585ZM21.6137 2.11698C21.8532 2.38036 22.0351 2.67346 22.1619 2.99841L23.0935 2.63487C22.9216 2.19448 22.6742 1.79692 22.3537 1.4443L21.6137 2.11698ZM22.1658 3.00815C22.3001 3.3321 22.3657 3.65915 22.3657 3.99264H23.3657C23.3657 3.52346 23.2726 3.06651 23.0896 2.62513L22.1658 3.00815ZM22.3657 3.99264C22.3657 4.36943 22.2978 4.72698 22.1627 5.06881L23.0927 5.43647C23.2749 4.97563 23.3657 4.49318 23.3657 3.99264H22.3657ZM22.1627 5.06881C22.0292 5.40662 21.8395 5.69151 21.5938 5.92952L22.2896 6.64776C22.6412 6.3071 22.9089 5.90133 23.0927 5.43647L22.1627 5.06881ZM21.5881 5.93509C21.3542 6.16897 21.0807 6.33793 20.7616 6.4443L21.0778 7.39298C21.5427 7.23802 21.9505 6.98697 22.2952 6.64219L21.5881 5.93509ZM20.4945 7.18165L22.8325 10.9617L23.6829 10.4356L21.3449 6.65562L20.4945 7.18165ZM23.2577 10.1986H21.4937V11.1986H23.2577V10.1986ZM21.918 10.4341L19.762 6.9761L18.9134 7.50517L21.0694 10.9632L21.918 10.4341ZM19.3377 6.74064H17.0277V7.74064H19.3377V6.74064ZM16.5277 7.24064V10.6986H17.5277V7.24064H16.5277ZM17.0277 10.1986H15.4597V11.1986H17.0277V10.1986ZM17.0277 6.35464H19.7717V5.35464H17.0277V6.35464ZM19.7717 6.35464C20.1653 6.35464 20.5281 6.23783 20.8417 6.00264L20.2417 5.20264C20.1073 5.30344 19.9567 5.35464 19.7717 5.35464V6.35464ZM20.8417 6.00264C21.138 5.78037 21.365 5.4887 21.5268 5.14208L20.6206 4.7192C20.521 4.93258 20.3933 5.08891 20.2417 5.20264L20.8417 6.00264ZM21.5294 5.13643C21.6909 4.77868 21.7697 4.39538 21.7697 3.99264H20.7697C20.7697 4.2619 20.7178 4.50393 20.618 4.72484L21.5294 5.13643ZM21.7697 3.99264C21.7697 3.57291 21.6782 3.18008 21.4835 2.8271L20.6079 3.31018C20.7118 3.49853 20.7697 3.7217 20.7697 3.99264H21.7697ZM21.4869 2.83334C21.303 2.48852 21.0553 2.20221 20.7423 1.98554L20.1731 2.80773C20.3455 2.92707 20.4897 3.08875 20.6045 3.30393L21.4869 2.83334ZM20.7498 1.99087C20.4339 1.76336 20.0755 1.64464 19.6877 1.64464V2.64464C19.8599 2.64464 20.0149 2.69391 20.1655 2.80241L20.7498 1.99087ZM19.6877 1.64464H17.0277V2.64464H19.6877V1.64464ZM16.5277 2.14464V5.85464H17.5277V2.14464H16.5277ZM31.9138 2.14464V2.64464H32.4138V2.14464H31.9138ZM28.6098 2.14464V1.64464H28.1098V2.14464H28.6098ZM28.6098 10.6986V11.1986H29.1098V10.6986H28.6098ZM27.0278 10.6986H26.5278V11.1986H27.0278V10.6986ZM27.0278 2.14464H27.5278V1.64464H27.0278V2.14464ZM23.7098 2.14464H23.2098V2.64464H23.7098V2.14464ZM23.7098 0.758638V0.258638H23.2098V0.758638H23.7098ZM31.9138 0.758638H32.4138V0.258638H31.9138V0.758638ZM31.9138 1.64464H28.6098V2.64464H31.9138V1.64464ZM28.1098 2.14464V10.6986H29.1098V2.14464H28.1098ZM28.6098 10.1986H27.0278V11.1986H28.6098V10.1986ZM27.5278 10.6986V2.14464H26.5278V10.6986H27.5278ZM27.0278 1.64464H23.7098V2.64464H27.0278V1.64464ZM24.2098 2.14464V0.758638H23.2098V2.14464H24.2098ZM23.7098 1.25864H31.9138V0.258638H23.7098V1.25864ZM31.4138 0.758638V2.14464H32.4138V0.758638H31.4138ZM33.2468 10.6986H32.7468V11.1986H33.2468V10.6986ZM33.2468 0.758638V0.258638H32.7468V0.758638H33.2468ZM34.8148 0.758638H35.3148V0.258638H34.8148V0.758638ZM34.8148 10.6986V11.1986H35.3148V10.6986H34.8148ZM33.7468 10.6986V0.758638H32.7468V10.6986H33.7468ZM33.2468 1.25864H34.8148V0.258638H33.2468V1.25864ZM34.3148 0.758638V10.6986H35.3148V0.758638H34.3148ZM34.8148 10.1986H33.2468V11.1986H34.8148V10.1986ZM42.9412 3.09664L42.5713 3.43297L43.0404 3.94903L43.3786 3.33906L42.9412 3.09664ZM42.5353 2.77464L42.2529 3.18729L42.2605 3.19248L42.2683 3.19738L42.5353 2.77464ZM41.9053 2.43864L42.1001 1.97815L41.9053 2.43864ZM41.1213 2.18664L41.2349 1.69972V1.69972L41.1213 2.18664ZM38.7972 2.45264L38.4935 2.05546V2.05546L38.7972 2.45264ZM38.5872 4.21664L38.2246 4.56113L38.2337 4.57019L38.5872 4.21664ZM39.3993 4.66464L39.2411 5.13898L39.3993 4.66464ZM40.7713 5.05664L40.648 5.54129L40.6564 5.54326L40.7713 5.05664ZM42.5213 5.63064L42.315 6.08617L42.3222 6.08931L42.5213 5.63064ZM43.6553 6.49864L43.2491 6.79024L43.6553 6.49864ZM43.7673 9.24264L43.3223 9.01448L43.7673 9.24264ZM42.9832 10.1386L43.2607 10.5547L43.2684 10.5493L42.9832 10.1386ZM41.8213 10.6426L41.9352 11.1296L41.9449 11.1271L41.8213 10.6426ZM38.9232 10.6426L38.8198 11.1318L38.8216 11.1322L38.9232 10.6426ZM37.5233 10.1946L37.3112 10.6476L37.3228 10.6527L37.5233 10.1946ZM36.3052 9.45264L35.8637 9.21806L35.6661 9.58991L35.999 9.84785L36.3052 9.45264ZM37.0192 8.10864L37.3728 7.75509L36.8948 7.27711L36.5777 7.87406L37.0192 8.10864ZM37.5373 8.51464L37.2599 8.93066L37.2698 8.93726L37.28 8.94339L37.5373 8.51464ZM38.3353 8.92064L38.1348 9.37875L38.14 9.38093L38.3353 8.92064ZM39.3293 9.25664L39.202 9.74018L39.2094 9.74212L39.2168 9.74383L39.3293 9.25664ZM41.8633 9.06064L42.1378 9.4785L42.1406 9.47666L41.8633 9.06064ZM42.0452 7.31064L41.6995 7.67206L41.7081 7.67988L42.0452 7.31064ZM41.1073 6.79264L41.2686 6.31938H41.2686L41.1073 6.79264ZM39.6372 6.37264L39.5062 6.85532L39.5179 6.85817L39.6372 6.37264ZM37.9992 5.79864L37.7794 6.24781L37.7873 6.25148L37.9992 5.79864ZM37.0052 4.98664L36.5839 5.25583L36.5883 5.26269L36.5929 5.2694L37.0052 4.98664ZM37.1592 2.06064L37.5673 2.34966L37.57 2.34568L37.1592 2.06064ZM38.4473 1.03864L38.6384 1.50066L38.6423 1.49901L38.4473 1.03864ZM41.5692 0.842638L41.4453 1.32716L41.456 1.32964L41.5692 0.842638ZM42.6893 1.23464L42.4705 1.68428L42.4752 1.68651L42.6893 1.23464ZM43.6553 1.80864L44.0926 2.05106L44.3049 1.66803L43.9532 1.40709L43.6553 1.80864ZM43.3112 2.7603C43.1764 2.61198 43.0003 2.477 42.8022 2.35189L42.2683 3.19738C42.4248 3.29628 42.5195 3.37597 42.5713 3.43297L43.3112 2.7603ZM42.8176 2.36198C42.6074 2.21817 42.3668 2.09101 42.1001 1.97815L41.7104 2.89912C41.929 2.9916 42.1084 3.08844 42.2529 3.18729L42.8176 2.36198ZM42.1001 1.97815C41.8289 1.86342 41.5401 1.77095 41.2349 1.69972L41.0076 2.67356C41.2624 2.73299 41.4963 2.80852 41.7104 2.89912L42.1001 1.97815ZM41.2349 1.69972C40.9162 1.62536 40.5887 1.58864 40.2533 1.58864V2.58864C40.5152 2.58864 40.7663 2.61725 41.0076 2.67356L41.2349 1.69972ZM40.2533 1.58864C39.5543 1.58864 38.9381 1.71551 38.4935 2.05546L39.101 2.84982C39.2911 2.70444 39.6455 2.58864 40.2533 2.58864V1.58864ZM38.4935 2.05546C38.0422 2.40062 37.8213 2.88904 37.8213 3.46064H38.8213C38.8213 3.17357 38.9177 2.98999 39.101 2.84982L38.4935 2.05546ZM37.8213 3.46064C37.8213 3.87477 37.9397 4.26093 38.2248 4.56101L38.9497 3.87226C38.8802 3.79902 38.8213 3.68118 38.8213 3.46064H37.8213ZM38.2337 4.57019C38.4873 4.82383 38.839 5.00492 39.2411 5.13898L39.5574 4.1903C39.2315 4.08169 39.0418 3.96411 38.9408 3.86309L38.2337 4.57019ZM39.2411 5.13898C39.6207 5.26549 40.0906 5.39951 40.6481 5.54122L40.8945 4.57205C40.3505 4.43377 39.9058 4.30645 39.5574 4.1903L39.2411 5.13898ZM40.6564 5.54326C41.305 5.69641 41.8564 5.87843 42.315 6.08612L42.7275 5.17516C42.1968 4.93485 41.5815 4.73421 40.8861 4.57002L40.6564 5.54326ZM42.3222 6.08931C42.7509 6.27536 43.0502 6.51327 43.2491 6.79024L44.0614 6.20704C43.7376 5.75601 43.2809 5.41525 42.7203 5.17197L42.3222 6.08931ZM43.2491 6.79024C43.432 7.04501 43.5472 7.4135 43.5472 7.94064H44.5472C44.5472 7.27311 44.4012 6.68027 44.0614 6.20704L43.2491 6.79024ZM43.5472 7.94064C43.5472 8.3834 43.4654 8.7356 43.3223 9.01448L44.2122 9.4708C44.4425 9.02167 44.5472 8.50588 44.5472 7.94064H43.5472ZM43.3223 9.01448C43.1731 9.30545 42.9666 9.54143 42.6981 9.72795L43.2684 10.5493C43.6719 10.2692 43.988 9.90782 44.2122 9.4708L43.3223 9.01448ZM42.7059 9.72261C42.4222 9.91174 42.0881 10.0585 41.6976 10.1582L41.9449 11.1271C42.4318 11.0028 42.8723 10.8135 43.2606 10.5547L42.7059 9.72261ZM41.7073 10.1558C41.3101 10.2488 40.8774 10.2966 40.4072 10.2966V11.2966C40.9451 11.2966 41.4551 11.2419 41.9352 11.1295L41.7073 10.1558ZM40.4072 10.2966C39.9474 10.2966 39.4868 10.249 39.0249 10.1531L38.8216 11.1322C39.349 11.2417 39.8777 11.2966 40.4072 11.2966V10.2966ZM39.0267 10.1535C38.5742 10.0577 38.14 9.91873 37.7237 9.73656L37.3228 10.6527C37.8025 10.8625 38.3016 11.0222 38.8198 11.1318L39.0267 10.1535ZM37.7352 9.74179C37.3292 9.55173 36.9549 9.32355 36.6115 9.05743L35.999 9.84785C36.4022 10.1604 36.84 10.4269 37.3113 10.6475L37.7352 9.74179ZM36.7468 9.68722L37.4608 8.34322L36.5777 7.87406L35.8637 9.21806L36.7468 9.68722ZM36.6657 8.46219C36.8195 8.61604 37.0221 8.77212 37.2599 8.93066L37.8146 8.09861C37.6044 7.9585 37.4616 7.8439 37.3728 7.75509L36.6657 8.46219ZM37.28 8.94339C37.5348 9.09626 37.8203 9.24111 38.1348 9.37872L38.5357 8.46256C38.2529 8.33883 38.0064 8.21302 37.7945 8.08589L37.28 8.94339ZM38.14 9.38093C38.4721 9.52181 38.8263 9.64131 39.202 9.74018L39.4565 8.7731C39.1228 8.6853 38.8144 8.5808 38.5305 8.46035L38.14 9.38093ZM39.2168 9.74383C39.6177 9.83634 40.0241 9.88264 40.4352 9.88264V8.88264C40.0998 8.88264 39.7688 8.84494 39.4417 8.76944L39.2168 9.74383ZM40.4352 9.88264C41.1047 9.88264 41.6942 9.77003 42.1378 9.47849L41.5887 8.64279C41.379 8.78058 41.0164 8.88264 40.4352 8.88264V9.88264ZM42.1406 9.47666C42.6185 9.15805 42.8672 8.68307 42.8672 8.10864H41.8672C41.8672 8.35554 41.78 8.51523 41.5859 8.64461L42.1406 9.47666ZM42.8672 8.10864C42.8672 7.65621 42.7173 7.24722 42.3824 6.9414L41.7081 7.67988C41.8025 7.76605 41.8672 7.88907 41.8672 8.10864H42.8672ZM42.3909 6.94932C42.1052 6.67605 41.7189 6.4729 41.2686 6.31938L40.9459 7.26589C41.3169 7.39238 41.556 7.53456 41.6996 7.67196L42.3909 6.94932ZM41.2686 6.31938C40.8403 6.17338 40.3356 6.02946 39.7566 5.8871L39.5179 6.85817C40.0776 6.99581 40.5529 7.1319 40.9459 7.26589L41.2686 6.31938ZM39.7682 5.8901C39.1327 5.71759 38.6158 5.53518 38.2112 5.34579L37.7873 6.25148C38.26 6.47277 38.8352 6.67303 39.5063 6.85518L39.7682 5.8901ZM38.219 5.34953C37.8399 5.16402 37.5827 4.94462 37.4176 4.70387L36.5929 5.2694C36.8758 5.68199 37.2812 6.00392 37.7795 6.24775L38.219 5.34953ZM37.4266 4.71744C37.2761 4.48196 37.1833 4.15766 37.1833 3.71264H36.1833C36.1833 4.29428 36.305 4.81932 36.5839 5.25583L37.4266 4.71744ZM37.1833 3.71264C37.1833 3.14269 37.3205 2.69808 37.5673 2.34965L36.7512 1.77163C36.3634 2.3192 36.1833 2.97592 36.1833 3.71264H37.1833ZM37.57 2.34568C37.8297 1.97142 38.1809 1.68998 38.6384 1.50065L38.2561 0.57663C37.631 0.8353 37.1234 1.23519 36.7485 1.7756L37.57 2.34568ZM38.6423 1.49901C39.1233 1.29522 39.6717 1.18864 40.2952 1.18864V0.188638C39.5562 0.188638 38.8726 0.315386 38.2522 0.578262L38.6423 1.49901ZM40.2952 1.18864C40.7048 1.18864 41.0876 1.23554 41.4453 1.32704L41.6932 0.358237C41.2482 0.244408 40.7817 0.188638 40.2952 0.188638V1.18864ZM41.456 1.32964C41.8235 1.41511 42.1612 1.53377 42.4705 1.68426L42.908 0.78502C42.5267 0.599509 42.1177 0.456831 41.6825 0.355634L41.456 1.32964ZM42.4752 1.68651C42.8029 1.84175 43.0965 2.01664 43.3573 2.21019L43.9532 1.40709C43.6354 1.17131 43.2849 0.96353 42.9033 0.782769L42.4752 1.68651ZM43.2179 1.56622L42.5039 2.85422L43.3786 3.33906L44.0926 2.05106L43.2179 1.56622ZM52.9138 2.14464V2.64464H53.4138V2.14464H52.9138ZM49.6098 2.14464V1.64464H49.1098V2.14464H49.6098ZM49.6098 10.6986V11.1986H50.1098V10.6986H49.6098ZM48.0278 10.6986H47.5278V11.1986H48.0278V10.6986ZM48.0278 2.14464H48.5278V1.64464H48.0278V2.14464ZM44.7098 2.14464H44.2098V2.64464H44.7098V2.14464ZM44.7098 0.758638V0.258638H44.2098V0.758638H44.7098ZM52.9138 0.758638H53.4138V0.258638H52.9138V0.758638ZM52.9138 1.64464H49.6098V2.64464H52.9138V1.64464ZM49.1098 2.14464V10.6986H50.1098V2.14464H49.1098ZM49.6098 10.1986H48.0278V11.1986H49.6098V10.1986ZM48.5278 10.6986V2.14464H47.5278V10.6986H48.5278ZM48.0278 1.64464H44.7098V2.64464H48.0278V1.64464ZM45.2098 2.14464V0.758638H44.2098V2.14464H45.2098ZM44.7098 1.25864H52.9138V0.258638H44.7098V1.25864ZM52.4138 0.758638V2.14464H53.4138V0.758638H52.4138ZM54.2468 10.6986H53.7468V11.1986H54.2468V10.6986ZM54.2468 0.758638V0.258638H53.7468V0.758638H54.2468ZM55.8148 0.758638H56.3148V0.258638H55.8148V0.758638ZM55.8148 10.6986V11.1986H56.3148V10.6986H55.8148ZM54.7468 10.6986V0.758638H53.7468V10.6986H54.7468ZM54.2468 1.25864H55.8148V0.258638H54.2468V1.25864ZM55.3148 0.758638V10.6986H56.3148V0.758638H55.3148ZM55.8148 10.1986H54.2468V11.1986H55.8148V10.1986ZM57.7533 3.88064L58.222 4.05454L58.2229 4.05211L57.7533 3.88064ZM58.6912 2.28464L58.3132 1.95745L58.3127 1.95802L58.6912 2.28464ZM60.2173 1.13664L60.4295 1.5894L60.4352 1.58663L60.2173 1.13664ZM64.5713 1.31864L64.3052 1.74198L64.3095 1.74468L64.5713 1.31864ZM66.0273 2.87264L66.3057 3.28794L66.6713 3.04278L66.4745 2.64903L66.0273 2.87264ZM64.7952 3.69864L64.3419 3.9095L64.5883 4.43935L65.0737 4.11394L64.7952 3.69864ZM64.0812 2.74664L63.7611 3.1308L63.7674 3.13585L64.0812 2.74664ZM63.1572 2.25664L63.0199 2.73741L63.0234 2.7384L63.1572 2.25664ZM60.8192 2.43864L61.0513 2.88163L61.0594 2.87719L60.8192 2.43864ZM59.8252 3.26464L59.4317 2.95615L59.4265 2.96292L59.8252 3.26464ZM59.2233 4.42664L58.7478 4.2716L58.7449 4.28106L59.2233 4.42664ZM59.2653 7.10064L58.7939 7.26757L58.7951 7.27071L59.2653 7.10064ZM59.9232 8.27664L59.5349 8.59154L59.5395 8.59729L59.5444 8.6029L59.9232 8.27664ZM60.9453 9.07464L60.7216 9.52185L60.9453 9.07464ZM63.2272 9.20064L63.073 8.72503L63.2272 9.20064ZM64.1792 8.68264L64.4931 9.07185L64.4945 9.0707L64.1792 8.68264ZM64.8792 7.73064L65.1268 7.29623L64.6403 7.01895L64.4197 7.53368L64.8792 7.73064ZM66.1813 8.47264L66.643 8.66433L66.8122 8.25674L66.4288 8.03823L66.1813 8.47264ZM65.2152 9.73264L64.906 9.33975L64.9019 9.34303L65.2152 9.73264ZM63.7593 10.5166L63.6036 10.0415L63.6011 10.0423L63.7593 10.5166ZM60.2593 10.3486L60.0299 10.793L60.0356 10.7959L60.2593 10.3486ZM58.7612 9.17264L58.3801 9.49627L58.3832 9.49983L58.7612 9.17264ZM57.7812 7.52064L57.3137 7.69775L57.3146 7.70013L57.7812 7.52064ZM57.9313 5.65864C57.9313 5.11238 58.0276 4.57854 58.222 4.05454L57.2845 3.70674C57.0495 4.34007 56.9313 4.99157 56.9313 5.65864H57.9313ZM58.2229 4.05211C58.4168 3.52116 58.6985 3.04168 59.0698 2.61126L58.3127 1.95802C57.8627 2.4796 57.5191 3.06412 57.2836 3.70917L58.2229 4.05211ZM59.0693 2.61183C59.4422 2.181 59.8938 1.84046 60.4295 1.58937L60.005 0.683909C59.346 0.992814 58.7803 1.41761 58.3132 1.95745L59.0693 2.61183ZM60.4352 1.58663C60.9557 1.33451 61.5562 1.20264 62.2472 1.20264V0.202638C61.4263 0.202638 60.6734 0.360101 59.9993 0.686648L60.4352 1.58663ZM62.2472 1.20264C63.0646 1.20264 63.7437 1.38903 64.3052 1.74196L64.8373 0.89532C64.0921 0.426917 63.2219 0.202638 62.2472 0.202638V1.20264ZM64.3095 1.74468C64.89 2.10126 65.3078 2.55177 65.58 3.09625L66.4745 2.64903C66.112 1.92417 65.5592 1.33869 64.833 0.892601L64.3095 1.74468ZM65.7488 2.45734L64.5168 3.28334L65.0737 4.11394L66.3057 3.28794L65.7488 2.45734ZM65.2486 3.48777C65.0358 3.03022 64.7543 2.64708 64.3951 2.35743L63.7674 3.13585C63.9869 3.31286 64.1814 3.56439 64.3419 3.9095L65.2486 3.48777ZM64.4013 2.36253C64.0694 2.0859 63.6985 1.88805 63.2911 1.77488L63.0234 2.7384C63.288 2.8119 63.5331 2.94071 63.7612 3.13075L64.4013 2.36253ZM63.2946 1.77588C62.9264 1.67068 62.5582 1.61664 62.1912 1.61664V2.61664C62.459 2.61664 62.7347 2.65593 63.0199 2.7374L63.2946 1.77588ZM62.1912 1.61664C61.5989 1.61664 61.0563 1.73876 60.5791 2.00009L61.0594 2.87719C61.3662 2.70919 61.7382 2.61664 62.1912 2.61664V1.61664ZM60.5872 1.99572C60.133 2.23364 59.7465 2.55461 59.4317 2.9562L60.2188 3.57308C60.4454 3.284 60.7215 3.0543 61.0513 2.88155L60.5872 1.99572ZM59.4265 2.96292C59.1303 3.35443 58.9044 3.79175 58.7479 4.27163L59.6986 4.58165C59.8221 4.20286 59.9976 3.86552 60.224 3.56636L59.4265 2.96292ZM58.7449 4.28106C58.6005 4.75544 58.5272 5.23378 58.5272 5.71464H59.5272C59.5272 5.33683 59.5846 4.95651 59.7016 4.57222L58.7449 4.28106ZM58.5272 5.71464C58.5272 6.24742 58.6163 6.76587 58.7939 7.26756L59.7366 6.93371C59.5969 6.5394 59.5272 6.13386 59.5272 5.71464H58.5272ZM58.7951 7.27071C58.9718 7.75927 59.218 8.20073 59.5349 8.59154L60.3116 7.96174C60.0685 7.66188 59.8761 7.31934 59.7354 6.93057L58.7951 7.27071ZM59.5444 8.6029C59.8764 8.9885 60.2697 9.29587 60.7216 9.52185L61.1689 8.62743C60.8368 8.46141 60.5488 8.23677 60.3021 7.95038L59.5444 8.6029ZM60.7216 9.52185C61.1875 9.7548 61.6941 9.86864 62.2332 9.86864V8.86864C61.8391 8.86864 61.487 8.78648 61.1689 8.62743L60.7216 9.52185ZM62.2332 9.86864C62.6099 9.86864 62.9934 9.80212 63.3815 9.67625L63.073 8.72503C62.7704 8.82315 62.4913 8.86864 62.2332 8.86864V9.86864ZM63.3815 9.67625C63.7863 9.54498 64.1575 9.34255 64.4931 9.07185L63.8654 8.29343C63.6224 8.4894 63.3589 8.6323 63.073 8.72503L63.3815 9.67625ZM64.4945 9.0707C64.8626 8.77161 65.1424 8.38585 65.3388 7.9276L64.4197 7.53368C64.2801 7.85943 64.0932 8.10833 63.864 8.29458L64.4945 9.0707ZM64.6317 8.16505L65.9337 8.90705L66.4288 8.03823L65.1268 7.29623L64.6317 8.16505ZM65.7195 8.28095C65.5483 8.69321 65.2804 9.04502 64.906 9.33977L65.5245 10.1255C66.0274 9.7296 66.4035 9.24141 66.643 8.66433L65.7195 8.28095ZM64.9019 9.34303C64.5211 9.64929 64.0896 9.88228 63.6036 10.0415L63.9149 10.9918C64.5116 10.7963 65.0507 10.5067 65.5286 10.1222L64.9019 9.34303ZM63.6011 10.0423C63.1164 10.2039 62.6424 10.2826 62.1772 10.2826V11.2826C62.7574 11.2826 63.3381 11.1841 63.9174 10.991L63.6011 10.0423ZM62.1772 10.2826C61.5484 10.2826 60.9865 10.1533 60.4829 9.90143L60.0356 10.7959C60.6893 11.1227 61.4061 11.2826 62.1772 11.2826V10.2826ZM60.4886 9.90433C59.9657 9.63444 59.517 9.28191 59.1393 8.84545L58.3832 9.49983C58.8455 10.034 59.3955 10.4655 60.0299 10.7929L60.4886 9.90433ZM59.1424 8.84902C58.7589 8.39732 58.4611 7.89539 58.2479 7.34115L57.3146 7.70013C57.5681 8.35922 57.9236 8.95863 58.3801 9.49625L59.1424 8.84902ZM58.2488 7.34352C58.0358 6.78106 57.9313 6.22028 57.9313 5.65864H56.9313C56.9313 6.34767 57.0601 7.02822 57.3137 7.69775L58.2488 7.34352Z" fill="black"/>
</g>
<defs>
<filter id="filter0_d_1_20" x="0.990425" y="0.688629" width="69.1908" height="18.108" filterUnits="userSpaceOnUse" color-interpolation-filters="sRGB">
<feFlood flood-opacity="0" result="BackgroundImageFix"/>
<feColorMatrix in="SourceAlpha" type="matrix" values="0 0 0 0 0 0 0 0 0 0 0 0 0 0 0 0 0 0 127 0" result="hardAlpha"/>
<feOffset dy="4"/>
<feGaussianBlur stdDeviation="2"/>
<feComposite in2="hardAlpha" operator="out"/>
<feColorMatrix type="matrix" values="0 0 0 0 0 0 0 0 0 0 0 0 0 0 0 0 0 0 0.25 0"/>
<feBlend mode="normal" in2="BackgroundImageFix" result="effect1_dropShadow_1_20"/>
<feBlend mode="normal" in="SourceGraphic" in2="effect1_dropShadow_1_20" result="shape"/>
</filter>
</defs>
</svg>
